# xmcd
#
# Track frame offsets:
#	150
#	20482
#	35340
#	53257
#	68265
#	82905
#	96707
#	106307
#	136155
#	151420
#
# Disc length: 2194 seconds
#
# Revision: 0
# Processed by: cddbd v1.5.1PL0 Copyright (c) Steve Scherf et al.
# Submitted via: dBpowerAMP V4.0
#
DISCID=6e08900a
DTITLE=Zeynep Baþkan - Bu Topraðýn Sesi
DYEAR=1900
DGENRE=
TTITLE0=Yol Havasý Yine Geldi Kara Güz
TTITLE1=Karadýr Kaþlarýn
TTITLE2=Çarþambayý Sel Aldý
TTITLE3=Asker Yolu Beklerim
TTITLE4=Berber
TTITLE5=Yaylanýn Çimenine
TTITLE6=Aslan Mustafam
TTITLE7=Zahidem
TTITLE8=Dersinn Almýþta
TTITLE9=Nar Aðacý
EXTD=
EXTT0=
EXTT1=
EXTT2=
EXTT3=
EXTT4=
EXTT5=
EXTT6=
EXTT7=
EXTT8=
EXTT9=
PLAYORDER=
